# xmcd CD database file
#
# Track frame offsets:
#	150
#	17819
#	37666
#	57690
#	72470
#	90842
#	119477
#	138974
#	156778
#	163982
#
# Disc length: 2443 seconds
#
# Revision: 0
# Processed by: cddbd v1.5.1PL0 Copyright (c) Steve Scherf et al.
# Submitted via: CDex 1.51
#
DISCID=8309890a
DTITLE=山下達郎  - MELODIES
DYEAR=1900
DGENRE=New Age
TTITLE0=悲しみのJODY(She Was Crying)
TTITLE1=高気圧ガール
TTITLE2=夜翔(Night-Fly)
TTITLE3=GUESS I’M DUMB
TTITLE4=ひととき
TTITLE5=メリー・ゴー・ラウンド
TTITLE6=BLUE MiDNiGHT
TTITLE7=あしおと
TTITLE8=黙想
TTITLE9=クリスマス・イブ
EXTD=
EXTT0=
EXTT1=
EXTT2=
EXTT3=
EXTT4=
EXTT5=
EXTT6=
EXTT7=
EXTT8=
EXTT9=
PLAYORDER=
